<svg xmlns="http://www.w3.org/2000/svg" width="2500" height="2438" viewBox="0 130.746 595.279 580.398"><radialGradient id="A" cx="-183.69" cy="328.972" r=".76" gradientTransform="matrix(545.6736 0 0 528.3113 100439.305 -173525.125)" gradientUnits="userSpaceOnUse"><stop offset="0" stop-color="#423325" stop-opacity=".98"/><stop offset="1" stop-color="#1c0a00"/></radialGradient><path d="M24.803 155.55h545.674V686.34H24.803V155.55z" fill="url(#A)"/><path d="M24.803 155.55h545.674V686.34H24.803V155.55zM0 711.145h595.28v-580.4H0v580.4zm389.908-373.54c0-1.984.744-2.977 2.977-2.977h38.94c1.983 0 2.976.744 2.976 2.977v195.7c0 1.983-.496 2.976-2.976 2.976H393.38c-2.48 0-3.225-1.24-3.225-3.224v-195.45h-.248zm-2.728-56.304c0-15.874 11.16-25.3 25.3-25.3 15.13 0 25.3 10.17 25.3 25.3 0 16.37-10.665 25.3-25.795 25.3-14.387.001-24.804-8.93-24.804-25.3zM275.565 419.21L246.05 302.633h-.496c-5.21 29.02-18.354 78.13-28.77 116.576h58.783zm-68.953 40.182l-19.595 74.4c-.496 1.983-1.24 2.48-3.72 2.48h-36.46c-2.48 0-2.977-.744-2.48-3.72l70.44-246.546c1.24-4.464 1.984-8.433 2.48-20.586 0-1.736.744-2.48 1.984-2.48h52.087c1.736 0 2.48.496 2.977 2.48L353.2 533.056c.496 1.983 0 3.224-1.984 3.224H310.04c-1.984 0-3.225-.496-3.72-2.23l-20.34-74.658h-79.37z" fill="#ff7f18"/></svg>