<svg xmlns="http://www.w3.org/2000/svg" width="2500" height="2458" viewBox="0 0 300 295"><linearGradient id="A" gradientUnits="userSpaceOnUse" x1="72.905" y1="-15.406" x2="187.905" y2="227.595"><stop offset="0" stop-color="#a0cbff"/><stop offset=".394" stop-color="#a0cbfe"/><stop offset=".583" stop-color="#8ec2fc"/><stop offset=".784" stop-color="#83bcfb"/><stop offset="1" stop-color="#7fbafb"/></linearGradient><path fill="url(#A)" d="M0 0h300v295H0z"/><linearGradient id="B" gradientUnits="userSpaceOnUse" x1="113.725" y1="26.955" x2="178.725" y2="242.957"><stop offset="0" stop-color="#090058"/><stop offset="1" stop-color="#070033"/></linearGradient><path fill="url(#B)" d="M23.86 23.46h252.284V271.54H23.86z"/><linearGradient id="C" gradientUnits="userSpaceOnUse" x1="37.137" y1="-2.476" x2="152.136" y2="240.522"><stop offset="0" stop-color="#a0cbff"/><stop offset=".394" stop-color="#a0cbfe"/><stop offset=".583" stop-color="#8ec2fc"/><stop offset=".784" stop-color="#83bcfb"/><stop offset="1" stop-color="#7fbafb"/></linearGradient><path d="M72.498 83.144l34.582-.5c15.778 0 27.028 3.712 34.58 10.235 7.22 6.164 12.087 16.672 12.087 28.634s-3.694 21.75-10.4 28.632c-8.73 8.88-18.9 14.138-36.258 14.865-4.795.2-9.233.25-9.233.25v38.884h-25.35l.001-121zm25.348 60.573c2.754.268 4.48.14 8.562.1 13.598-.163 21.99-8.432 21.99-20.937 0-11.234-6.92-20.458-19.973-20.936-5.203-.2-10.578 0-10.578 0v41.783z" fill="url(#C)"/><linearGradient id="D" gradientUnits="userSpaceOnUse" x1="102.641" y1="-34.205" x2="218.096" y2="209.756"><stop offset="0" stop-color="#a0cbff"/><stop offset=".394" stop-color="#a0cbfe"/><stop offset=".583" stop-color="#8ec2fc"/><stop offset=".784" stop-color="#83bcfb"/><stop offset="1" stop-color="#7fbafb"/></linearGradient><path d="M163.422 177.055c5.11 3.135 17.165 7.83 25.383 7.83 8.396 0 11.863-2.96 11.863-7.572 0-4.62-2.738-9.47-13.145-12.98-18.44-6.28-25.56-13.795-25.375-24.315 0-16.99 14.238-29.73 36.328-29.73 10.406 0 18.72 3.402 24.19 6.17v20.392c-4.02-2.218-15.61-7.17-23.277-7.17-6.76 0-10.6 2.77-10.6 7.382 0 4.248 3.47 6.464 14.424 10.344C220.2 153.314 227.32 162 227.5 175.285c0 16.805-12.954 30.168-38.7 29.357-8.836-.278-18.625-3.77-25.38-7.46l.002-20.128z" fill="url(#D)"/></svg>