<svg xmlns="http://www.w3.org/2000/svg" width="1773" height="2500" viewBox="0 0 256 361" preserveAspectRatio="xMinYMin meet"><path d="M255.555 70.766l-23.24 260.36-104.47 28.962-104.182-28.922L.445 70.766h255.1z" fill="#e44d26"/><path d="M128 337.95l84.417-23.403 19.86-222.5H128V337.95z" fill="#f16529"/><path d="M82.82 155.932H128v-31.937H47.917l8.614 96.578H128v-31.937H85.74l-2.92-32.704zm7.198 80.6h-32.06l4.474 50.146 65.42 18.16.147-.04V271.58l-.14.037-35.568-9.604-2.274-25.47z" fill="#ebebeb"/><path d="M24.18 0H40.4v16.035h14.847V0h16.23v48.558h-16.23v-16.26H40.41v16.26H24.18V0zm68.65 16.103H78.544V0h44.814v16.103h-14.295v32.455h-16.23l-.001-32.455zM130.47 0h16.923l10.4 17.062L168.203 0h16.93v48.558H168.97V24.5l-11.166 17.265h-.28L146.35 24.5v24.068h-15.88V0zm62.74 0h16.235v32.508h22.824v16.05h-39.06V0z"/><path d="M127.9 220.573h39.327l-3.708 41.42-35.62 9.614v33.226l65.473-18.145 8.765-98.052H127.9v31.937zm0-64.72v.078h77.143l2.86-31.937H127.9v31.86z" fill="#fff"/></svg>