<svg xmlns="http://www.w3.org/2000/svg" width="2500" height="2500" viewBox="0 0 256 256" preserveAspectRatio="xMinYMin meet"><path d="M0 0h256v256H0V0z" fill="#f7df1e"/><path d="M67.312 213.932l19.6-11.856c3.78 6.7 7.218 12.37 15.465 12.37 7.905 0 12.9-3.092 12.9-15.12V117.53h24.057v82.138c0 24.917-14.606 36.26-35.916 36.26-19.245 0-30.416-9.967-36.087-21.996m85.07-2.576l19.588-11.34c5.157 8.42 11.86 14.607 23.715 14.607 9.97 0 16.325-4.984 16.325-11.858 0-8.248-6.53-11.17-17.528-15.98l-6.013-2.58c-17.357-7.387-28.87-16.667-28.87-36.257 0-18.044 13.747-31.792 35.228-31.792 15.294 0 26.292 5.328 34.196 19.247L210.3 147.43c-4.125-7.39-8.59-10.3-15.465-10.3-7.046 0-11.514 4.468-11.514 10.3 0 7.217 4.468 10.14 14.778 14.608l6.014 2.577c20.45 8.765 31.963 17.7 31.963 37.804 0 21.654-17.012 33.5-39.867 33.5-22.34 0-36.774-10.654-43.82-24.574"/></svg>