<svg xmlns="http://www.w3.org/2000/svg" xmlns:xlink="http://www.w3.org/1999/xlink" width="2500" height="713" viewBox="0 0 512 146"><g fill-rule="evenodd"><path d="M476.713 60.463c-.46.092-.922 1.107-.922 1.66-.092 3.692-.184 13.474-.184 20.118 0 .185.276.554.553.554 1.384.092 4.706.184 7.567.184 3.968 0 6.275-.553 7.568-1.106 3.32-1.662 4.9-5.26 4.9-9.23 0-8.95-6.275-12.365-15.596-12.365-.646-.092-2.5-.092-3.876.185zm23.8 41.25c0-9.136-6.737-14.212-18.918-14.212-.554 0-4.43-.092-5.353.092-.277.093-.645.278-.645.555l.184 21.04c.184 1.753 1.477 4.245 3.046 4.983 1.66.923 5.444 1.107 8.028 1.107 7.3 0 13.658-4.06 13.658-13.565zM457.89 55.388c.922 0 3.7.276 10.796.276l18.64-.184c8.028 0 19.102 2.86 19.102 14.857 0 5.906-4.153 10.613-9.597 12.92-.276.092-.276.276 0 .368 7.75 1.94 14.58 6.737 14.58 15.78 0 8.86-5.537 14.49-13.566 17.996-4.89 2.122-10.98 2.86-17.164 2.86-4.707 0-17.35-.553-24.362-.368-.738-.278.646-3.6 1.29-4.153 1.662-.093 2.953-.185 4.707-.74 2.492-.645 2.768-1.384 3.137-5.167.185-3.23.185-14.674.185-22.794V64.616c-.092-2.86-1.107-3.784-3.137-4.338-1.57-.276-4.153-.646-6.276-.922-.462-.462 1.107-3.6 1.662-3.968zm-53.248 57.4c2.216 1.752 6.553 2.5 10.43 2.5 4.983 0 9.966-.92 14.765-5.26 4.89-4.428 8.305-11.257 8.305-22.146 0-10.43-3.968-18.92-12.09-23.9-4.614-2.862-10.52-4.06-17.35-4.06-2.03 0-3.968.092-5.167.645-.278.185-.923 1.015-.923 1.476-.185 1.846-.185 16.057-.185 24.363l.185 21.963c0 1.385.645 3.507 2.03 4.43zm-20.948-57.4c1.754 0 8.5.277 11.72.277 5.815 0 9.967-.276 20.948-.276 9.228 0 16.98 2.49 22.517 7.197 6.736 5.814 10.244 13.843 10.244 23.624 0 13.935-6.368 21.964-12.736 26.578-6.366 4.706-14.672 7.474-26.484 7.474-6.275 0-17.072-.184-26.024-.277h-.092c-.46-.83.738-4.06 1.476-4.152 2.4-.277 3.046-.37 4.246-.83 1.937-.74 2.307-1.754 2.584-5.168.276-6.368.184-14.027.184-22.702l-.093-22.148c-.276-3.23-1.66-4.06-4.43-4.614-1.384-.276-3.23-.646-5.813-.922-.37-.647 1.29-3.507 1.752-4.06z" fill="#8e714e"/><path d="M272.033 116.385c-2.307-.277-3.968-.645-5.998-1.568-.277-.185-.74-1.107-.74-1.477-.184-3.23-.184-12.458-.184-18.64 0-4.984-.83-9.32-2.953-12.366-2.492-3.508-6.1-5.537-10.705-5.537-4.06 0-9.505 2.768-14.027 6.644-.092.092-.83.74-.738-.277 0-1.015.185-3.045.277-4.43.093-1.292-.646-1.937-.646-1.937-2.953 1.476-11.258 3.414-14.304 3.7-2.214.463-2.768 2.585-.46 3.323h.092c2.5.738 4.152 1.57 5.443 2.4.923.738.83 1.753.83 2.584.092 6.92.092 17.533-.184 23.347-.092 2.307-.738 3.137-2.4 3.506l.185-.092c-1.292.277-2.307.553-3.876.738-.554.554-.554 3.507 0 4.153 1.015 0 6.367-.277 10.798-.277 6.1 0 9.228.277 10.796.277.646-.738.83-3.507.462-4.153-1.754-.092-3.046-.276-4.245-.646-1.66-.37-2.123-1.2-2.216-3.137-.183-4.892-.183-15.227-.183-22.24 0-1.938.553-2.86 1.106-3.415 2.123-1.845 5.538-3.137 8.583-3.137 2.953 0 4.9.923 6.367 2.123 2.03 1.66 2.676 4.06 2.953 5.813.46 3.968.277 11.812.277 18.64 0 3.69-.277 4.614-1.66 5.075-.647.277-2.308.647-4.246.83-.646.647-.46 3.508 0 4.154 2.676 0 5.814-.277 10.428-.277 5.72 0 9.413.277 10.9.277.46-.554.645-3.23.276-3.97zm25.562-35.25c-4.9 0-7.936 3.783-7.936 9.688 0 6 2.676 12.92 10.243 12.92 1.292 0 3.692-.554 4.798-1.846 1.754-1.66 2.954-4.983 2.954-8.5 0-7.66-3.784-12.273-10.06-12.273zm-.646 40.787a7.93 7.93 0 0 0-3.968 1.016c-3.876 2.5-5.63 4.9-5.63 7.752 0 2.675 1.015 4.797 3.23 6.643 2.676 2.307 6.367 3.415 11.073 3.415 9.413 0 13.566-5.076 13.566-10.058 0-3.508-1.754-5.815-5.352-7.106-2.584-1.108-7.3-1.662-12.92-1.662zm.646 23.994c-5.63 0-9.7-1.2-13.196-3.876-3.415-2.584-4.89-6.46-4.89-9.136 0-.738.185-2.77 1.846-4.614 1.014-1.108 3.23-3.23 8.5-6.83.184-.092.276-.184.276-.37s-.185-.37-.37-.46c-4.337-1.66-5.63-4.338-6-5.814v-.185c-.09-.554-.276-1.107.555-1.66.646-.46 1.57-1.015 2.583-1.66 1.57-.924 3.23-1.94 4.245-2.77.185-.184.185-.368.185-.553s-.185-.37-.37-.46c-6.458-2.123-9.688-6.922-9.688-14.12 0-4.706 2.122-8.95 5.905-11.627 2.584-2.03 9.044-4.522 13.29-4.522h.277c4.337.092 6.736 1.015 10.15 2.215 1.846.646 3.6.922 6 .922 3.598 0 5.167-1.107 6.458-2.398.093.184.278.646.37 1.845s-.277 2.953-1.2 4.245c-.738 1.015-2.4 1.754-4.06 1.754h-.462c-1.66-.185-2.4-.37-2.4-.37l-.368.185c-.092.185 0 .37.092.646l.093.185c.184.83.553 3.32.553 3.968 0 7.567-3.045 10.888-6.275 13.38-3.138 2.307-6.736 3.783-10.797 4.153-.092 0-.46 0-1.292.092-.46 0-1.107.093-1.2.093h-.092c-.738.184-2.583 1.107-2.583 2.675 0 1.384.83 3.046 4.798 3.323.83.092 1.66.092 2.584.185 5.26.368 11.812.83 14.857 1.845 4.245 1.568 6.92 5.352 6.92 9.874 0 6.83-4.9 13.197-13.01 17.164-3.968 1.754-7.937 2.677-12.274 2.677zm52.6-64.32c-1.937 0-3.69.46-4.983 1.383-3.598 2.215-5.444 6.645-5.444 13.104 0 12.1 6.1 20.58 14.765 20.58 2.584 0 4.614-.74 6.367-2.215 2.676-2.216 4.06-6.645 4.06-12.828 0-11.996-6-20.025-14.765-20.025zm1.662 39.496c-15.688 0-21.317-11.535-21.317-22.332 0-7.567 3.045-13.38 9.135-17.534 4.338-2.676 9.506-4.152 14.12-4.152 11.996 0 20.394 8.582 20.394 20.948 0 8.397-3.322 15.04-9.7 19.102-3.045 2.03-8.305 3.968-12.643 3.968h.001zM187.41 81.595c-1.938 0-3.69.46-4.984 1.384-3.598 2.215-5.444 6.645-5.444 13.104 0 12.1 6.1 20.58 14.765 20.58 2.584 0 4.614-.74 6.368-2.215 2.675-2.216 4.06-6.645 4.06-12.828 0-11.996-5.906-20.025-14.765-20.025zm1.66 39.497c-15.688 0-21.317-11.535-21.317-22.332 0-7.567 3.045-13.38 9.135-17.534 4.338-2.676 9.506-4.152 14.12-4.152 11.997 0 20.394 8.582 20.394 20.948 0 8.397-3.322 15.04-9.7 19.102-2.953 2.03-8.213 3.968-12.642 3.968zm-105.478-.923c-.185-.276-.37-1.107-.277-2.122 0-.74.185-1.2.277-1.384 1.938-.278 2.953-.555 4.06-.83 1.846-.462 2.584-1.476 2.676-3.783.278-5.537.278-16.058.185-23.348v-.185c0-.83 0-1.846-1.015-2.584-1.477-.922-3.23-1.752-5.537-2.4-.83-.275-1.384-.737-1.292-1.3 0-.554.554-1.2 1.754-1.385 3.045-.277 10.98-2.214 14.118-3.6.185.184.462.74.462 1.477l-.092 1.014c-.093 1.016-.185 2.216-.185 3.415 0 .37.37.646.738.646.185 0 .37-.092.554-.185 5.906-4.614 11.258-6.275 14.026-6.275 4.523 0 8.03 2.123 10.706 6.552.184.278.37.37.646.37.184 0 .46-.092.553-.277 5.445-4.153 10.9-6.645 14.488-6.645 8.582 0 13.658 6.368 13.658 17.165l-.092 10.613-.092 8.305c0 .46.645 1.937 1.66 2.214 1.292.646 3.046.923 5.353 1.292h.092c.185.646-.184 3.045-.553 3.507-.554 0-1.385 0-2.307-.092a136.208 136.208 0 0 0-7.014-.185c-5.72 0-8.674.092-11.536.277-.183-.738-.276-2.953 0-3.507 1.662-.276 2.492-.554 3.508-.83 1.846-.554 2.307-1.385 2.4-3.784 0-1.753.368-16.703-.186-20.302-.553-3.69-3.322-8.028-9.413-8.028-2.307 0-5.905.923-9.412 3.598a1.65 1.65 0 0 0-.37.923v.093c.37 1.937.37 4.153.37 7.567v16.98c0 2.03 1.2 2.492 2.215 2.862.554.09.922.184 1.384.276l2.953.646c.185.37.185 1.57-.092 2.584-.093.554-.278.83-.37.923l-11.073-.185c-1.384 0-3.784.093-5.814.093-1.662 0-3.23.092-4.152.092-.093-.185-.278-.83-.278-1.846 0-.83.185-1.476.37-1.66.46-.092.83-.184 1.292-.184 1.106-.185 2.03-.37 2.952-.554 1.57-.46 2.123-1.292 2.215-3.322.277-4.614.554-17.8-.092-21.133-1.107-5.352-4.152-8.028-9.044-8.028-2.86 0-6.46 1.384-9.412 3.6-.462.368-.83 1.3-.83 2.12v5.445l.092 18.55c.093 1.106.46 2.4 2.584 2.86.462.092 1.2.277 2.123.37l1.66.276c.186.554.093 2.77-.276 3.507-.923 0-2.03-.092-3.323-.092a150.02 150.02 0 0 0-7.197-.185 139.66 139.66 0 0 0-7.383.185c-1.292-.185-2.307-.185-3.414-.185z" fill="#442d22"/><use xlink:href="#B" fill="#fff"/><use xlink:href="#B" fill="#a6a385"/><use xlink:href="#C" fill="#fff"/><use xlink:href="#C" fill="#499d4a"/><use xlink:href="#D" fill="#fff"/><use xlink:href="#D" fill="#58aa50"/></g><defs ><path id="B" d="M35.053 142.317l-3.783-1.293s.462-19.286-6.46-20.67c-4.613-5.353.74-227.013 17.35-.74 0 0-5.722 2.86-6.737 7.752-1.108 4.8-.37 14.95-.37 14.95z"/><path id="C" d="M37.084 123.676s33.13-21.78 25.377-67.1c-7.474-32.943-25.1-43.74-27.038-47.893C33.3 5.74 31.27.573 31.27.573l1.385 91.634c0 .093-2.86 28.054 4.43 31.47"/><path id="D" d="M29.333 124.875S-1.767 103.65.08 66.277C1.832 28.903 23.795 10.54 28.04 7.217c2.77-2.953 2.86-4.06 3.046-7.014 1.938 4.153 1.57 62.106 1.845 68.934.83 26.3-1.476 50.756-3.598 55.738z"/></defs></svg>