<?xml version="1.0" encoding="utf-8"?>
<!-- Generator: Adobe Illustrator 23.0.3, SVG Export Plug-In . SVG Version: 6.00 Build 0)  -->
<svg version="1.1" id="Capa_1" xmlns="http://www.w3.org/2000/svg" xmlns:xlink="http://www.w3.org/1999/xlink" x="0px" y="0px"
	 viewBox="0 0 512 512" style="enable-background:new 0 0 512 512;" xml:space="preserve">
<style type="text/css">
	.st0{fill:#F9F7F7;}
</style>
<g>
	<g>
		<path class="st0" d="M256,512C114.8,512,0,397.2,0,256S114.8,0,256,0s256,114.8,256,256S397.2,512,256,512z M256,15.5
			C123.4,15.5,15.5,123.4,15.5,256S123.4,496.5,256,496.5S496.5,388.6,496.5,256S388.6,15.5,256,15.5z"/>
		<path class="st0" d="M256,512c-53.3,0-104.5-16.4-148.2-47.5c-2.3-1.7-3.6-4.5-3.2-7.3s2.3-5.3,5-6.3
			c64.3-23.8,74.7-43.1,74.7-80.2c0-9.8-2.2-13-6.2-18.8c-5.3-7.7-12.5-18.2-17.5-45.6c-0.7-3.9-1.4-4.3-4.9-6
			c-9.4-4.5-18-11-20.3-40.8c0-14.4,5-22.4,9.1-26.5c-0.9-5.1-2.4-13.9-3.8-23.6c-7-43.1-7.3-95.9,53.3-120.4
			c52.8-21.4,95-9.7,108.2,4.2c9.4,0.3,33.5,2.7,50.4,22.3c25.9,30.1,17.6,98.7,14.8,117.3c4.1,4,9.1,11.9,9.1,26
			c-2.3,30.3-10.9,36.8-20.3,41.4c-3.5,1.7-4.2,2-4.9,6c-5.1,27.4-12.2,37.9-17.5,45.6c-4,5.8-6.2,9-6.2,18.8
			c0,37.1,10.4,56.4,74.7,80.2c2.7,1,4.6,3.4,5,6.3c0.4,2.9-0.9,5.7-3.2,7.3C360.5,495.6,309.3,512,256,512z M129,460
			c38.2,23.9,81.8,36.4,127,36.4s88.8-12.6,127-36.4c-53.9-22.1-70.8-44.4-70.8-89.3c0-14.6,4.3-20.9,8.9-27.6
			c4.7-6.9,10.6-15.5,15.1-39.7c2.2-11.7,8.9-15,13.4-17.1c4.8-2.3,9.8-4.7,11.5-28c0-11.9-5.3-15.1-5.6-15.2
			c-2.9-1.6-4.7-5.1-4.1-8.3c3.8-20.6,10.2-84.9-10.6-109.1c-14.2-16.5-36.5-16.9-40.7-16.8c-0.7-0.1-1.4-0.1-2.1-0.2
			c-2-0.5-5.4-2.3-6.5-4.1c-4.2-7.2-41-21.8-91.7-1.2c-50.1,20.3-50.2,63.8-43.7,103.7c2.1,14.8,4.5,27.7,4.5,27.7
			c0.6,3.5-1.2,7-4.4,8.4l0,0c0,0-5.3,3.2-5.3,15.6c1.7,22.7,6.7,25.1,11.5,27.4c4.5,2.2,11.3,5.4,13.4,17.1
			c4.5,24.2,10.3,32.8,15,39.7c4.6,6.7,8.9,13,8.9,27.6C199.9,415.6,183,437.9,129,460z"/>
	</g>
</g>
</svg>
